# xmcd
#
# Track frame offsets: 
#        150
#        11521
#        25774
#        38117
#        48026
#        62032
#        76489
#        87648
#        100084
#        112258
#        122385
#        131942
#        141410
#        151873
#        163441
#        175559
#        188992
#        202828
#        213272
#        226856
#        238566
#
# Disc length: 3346 seconds
#
# Revision: 0
# Processed by: cddbd v1.5.2PL0 Copyright (c) Steve Scherf et al.
# Submitted via: ExactAudioCopy v0.95b3
#
DISCID=170d1015
DTITLE=The Beatles  - Revolver Deluxe 07 Purple Chick - Disc 2 - mono 
DTITLE=FLAC
DYEAR=1900
DGENRE=
TTITLE0=Paperback Writer (mono)
TTITLE1=Rain (mono)
TTITLE2=Taxman (mono)
TTITLE3=Eleanor Rigby (mono)
TTITLE4=I'm Only Sleeping (mono)
TTITLE5=Love You To (mono)
TTITLE6=Here, There And Everywhere (mono)
TTITLE7=Yellow Submarine
TTITLE8=She Said She Said  (mono)
TTITLE9=Good Day Sunshine (mono)
TTITLE10=And Your Bird Can Sing (mono)
TTITLE11=For No One (mono)
TTITLE12=Doctor Robert (mono)
TTITLE13=I Want To Tell You (mono)
TTITLE14=Got To Get You Into My Life (mono)
TTITLE15=Tomorrow Never Knows (mono matrix ii)
TTITLE16=I'm Only Sleeping (US mono)
TTITLE17=Doctor Robert (US mono)
TTITLE18=Tomorrow Never Knows (mono matrix i)
TTITLE19=Yellow Submarine (alt band mix)
TTITLE20=Yellow Submarine (with announcement)
EXTD=
EXTT0=
EXTT1=
EXTT2=
EXTT3=
EXTT4=
EXTT5=
EXTT6=
EXTT7=
EXTT8=
EXTT9=
EXTT10=
EXTT11=
EXTT12=
EXTT13=
EXTT14=
EXTT15=
EXTT16=
EXTT17=
EXTT18=
EXTT19=
EXTT20=
PLAYORDER=
